<?xml version="1.0" encoding="utf-8"?>
<!-- Generator: Adobe Illustrator 24.2.0, SVG Export Plug-In . SVG Version: 6.00 Build 0)  -->
<svg version="1.1" id="Layer_1" xmlns="http://www.w3.org/2000/svg" xmlns:xlink="http://www.w3.org/1999/xlink" x="0px" y="0px"
	 width="10000px" height="10000px" viewBox="0 0 10000 10000" style="enable-background:new 0 0 10000 10000;" xml:space="preserve"
	>
<style type="text/css">
	.st0{fill:none;stroke:#000;opacity:0.25;stroke-width:1;stroke-miterlimit:10;}
</style>
<g>
	<line class="st0" x1="10000" y1="0" x2="0" y2="0"/>
</g>
<g>
	<line class="st0" x1="10000" y1="100" x2="0" y2="100"/>
</g>
<g>
	<line class="st0" x1="10000" y1="200" x2="0" y2="200"/>
</g>
<g>
	<line class="st0" x1="10000" y1="300" x2="0" y2="300"/>
</g>
<g>
	<line class="st0" x1="10000" y1="400" x2="0" y2="400"/>
</g>
<g>
	<line class="st0" x1="10000" y1="500" x2="0" y2="500"/>
</g>
<g>
	<line class="st0" x1="10000" y1="600" x2="0" y2="600"/>
</g>
<g>
	<line class="st0" x1="10000" y1="700" x2="0" y2="700"/>
</g>
<g>
	<line class="st0" x1="10000" y1="800" x2="0" y2="800"/>
</g>
<g>
	<line class="st0" x1="10000" y1="900" x2="0" y2="900"/>
</g>
<g>
	<line class="st0" x1="10000" y1="1000" x2="0" y2="1000"/>
</g>
<g>
	<line class="st0" x1="10000" y1="1100" x2="0" y2="1100"/>
</g>
<g>
	<line class="st0" x1="10000" y1="1200" x2="0" y2="1200"/>
</g>
<g>
	<line class="st0" x1="10000" y1="1300" x2="0" y2="1300"/>
</g>
<g>
	<line class="st0" x1="10000" y1="1400" x2="0" y2="1400"/>
</g>
<g>
	<line class="st0" x1="10000" y1="1500" x2="0" y2="1500"/>
</g>
<g>
	<line class="st0" x1="10000" y1="1600" x2="0" y2="1600"/>
</g>
<g>
	<line class="st0" x1="10000" y1="1700" x2="0" y2="1700"/>
</g>
<g>
	<line class="st0" x1="10000" y1="1800" x2="0" y2="1800"/>
</g>
<g>
	<line class="st0" x1="10000" y1="1900" x2="0" y2="1900"/>
</g>
<g>
	<line class="st0" x1="10000" y1="2000" x2="0" y2="2000"/>
</g>
<g>
	<line class="st0" x1="10000" y1="2100" x2="0" y2="2100"/>
</g>
<g>
	<line class="st0" x1="10000" y1="2200" x2="0" y2="2200"/>
</g>
<g>
	<line class="st0" x1="10000" y1="2300" x2="0" y2="2300"/>
</g>
<g>
	<line class="st0" x1="10000" y1="2400" x2="0" y2="2400"/>
</g>
<g>
	<line class="st0" x1="10000" y1="2500" x2="0" y2="2500"/>
</g>
<g>
	<line class="st0" x1="10000" y1="2600" x2="0" y2="2600"/>
</g>
<g>
	<line class="st0" x1="10000" y1="2700" x2="0" y2="2700"/>
</g>
<g>
	<line class="st0" x1="10000" y1="2800" x2="0" y2="2800"/>
</g>
<g>
	<line class="st0" x1="10000" y1="2900" x2="0" y2="2900"/>
</g>
<g>
	<line class="st0" x1="10000" y1="3000" x2="0" y2="3000"/>
</g>
<g>
	<line class="st0" x1="10000" y1="3100" x2="0" y2="3100"/>
</g>
<g>
	<line class="st0" x1="10000" y1="3200" x2="0" y2="3200"/>
</g>
<g>
	<line class="st0" x1="10000" y1="3300" x2="0" y2="3300"/>
</g>
<g>
	<line class="st0" x1="10000" y1="3400" x2="0" y2="3400"/>
</g>
<g>
	<line class="st0" x1="10000" y1="3500" x2="0" y2="3500"/>
</g>
<g>
	<line class="st0" x1="10000" y1="3600" x2="0" y2="3600"/>
</g>
<g>
	<line class="st0" x1="10000" y1="3700" x2="0" y2="3700"/>
</g>
<g>
	<line class="st0" x1="10000" y1="3800" x2="0" y2="3800"/>
</g>
<g>
	<line class="st0" x1="10000" y1="3900" x2="0" y2="3900"/>
</g>
<g>
	<line class="st0" x1="10000" y1="4000" x2="0" y2="4000"/>
</g>
<g>
	<line class="st0" x1="10000" y1="4100" x2="0" y2="4100"/>
</g>
<g>
	<line class="st0" x1="10000" y1="4200" x2="0" y2="4200"/>
</g>
<g>
	<line class="st0" x1="10000" y1="4300" x2="0" y2="4300"/>
</g>
<g>
	<line class="st0" x1="10000" y1="4400" x2="0" y2="4400"/>
</g>
<g>
	<line class="st0" x1="10000" y1="4500" x2="0" y2="4500"/>
</g>
<g>
	<line class="st0" x1="10000" y1="4600" x2="0" y2="4600"/>
</g>
<g>
	<line class="st0" x1="10000" y1="4700" x2="0" y2="4700"/>
</g>
<g>
	<line class="st0" x1="10000" y1="4800" x2="0" y2="4800"/>
</g>
<g>
	<line class="st0" x1="10000" y1="4900" x2="0" y2="4900"/>
</g>
<g>
	<line class="st0" x1="10000" y1="5000" x2="0" y2="5000"/>
</g>
<g>
	<line class="st0" x1="10000" y1="5100" x2="0" y2="5100"/>
</g>
<g>
	<line class="st0" x1="10000" y1="5200" x2="0" y2="5200"/>
</g>
<g>
	<line class="st0" x1="10000" y1="5300" x2="0" y2="5300"/>
</g>
<g>
	<line class="st0" x1="10000" y1="5400" x2="0" y2="5400"/>
</g>
<g>
	<line class="st0" x1="10000" y1="5500" x2="0" y2="5500"/>
</g>
<g>
	<line class="st0" x1="10000" y1="5600" x2="0" y2="5600"/>
</g>
<g>
	<line class="st0" x1="10000" y1="5700" x2="0" y2="5700"/>
</g>
<g>
	<line class="st0" x1="10000" y1="5800" x2="0" y2="5800"/>
</g>
<g>
	<line class="st0" x1="10000" y1="5900" x2="0" y2="5900"/>
</g>
<g>
	<line class="st0" x1="10000" y1="6000" x2="0" y2="6000"/>
</g>
<g>
	<line class="st0" x1="10000" y1="6100" x2="0" y2="6100"/>
</g>
<g>
	<line class="st0" x1="10000" y1="6200" x2="0" y2="6200"/>
</g>
<g>
	<line class="st0" x1="10000" y1="6300" x2="0" y2="6300"/>
</g>
<g>
	<line class="st0" x1="10000" y1="6400" x2="0" y2="6400"/>
</g>
<g>
	<line class="st0" x1="10000" y1="6500" x2="0" y2="6500"/>
</g>
<g>
	<line class="st0" x1="10000" y1="6600" x2="0" y2="6600"/>
</g>
<g>
	<line class="st0" x1="10000" y1="6700" x2="0" y2="6700"/>
</g>
<g>
	<line class="st0" x1="10000" y1="6800" x2="0" y2="6800"/>
</g>
<g>
	<line class="st0" x1="10000" y1="6900" x2="0" y2="6900"/>
</g>
<g>
	<line class="st0" x1="10000" y1="7000" x2="0" y2="7000"/>
</g>
<g>
	<line class="st0" x1="10000" y1="7100" x2="0" y2="7100"/>
</g>
<g>
	<line class="st0" x1="10000" y1="7200" x2="0" y2="7200"/>
</g>
<g>
	<line class="st0" x1="10000" y1="7300" x2="0" y2="7300"/>
</g>
<g>
	<line class="st0" x1="10000" y1="7400" x2="0" y2="7400"/>
</g>
<g>
	<line class="st0" x1="10000" y1="7500" x2="0" y2="7500"/>
</g>
<g>
	<line class="st0" x1="10000" y1="7600" x2="0" y2="7600"/>
</g>
<g>
	<line class="st0" x1="10000" y1="7700" x2="0" y2="7700"/>
</g>
<g>
	<line class="st0" x1="10000" y1="7800" x2="0" y2="7800"/>
</g>
<g>
	<line class="st0" x1="10000" y1="7900" x2="0" y2="7900"/>
</g>
<g>
	<line class="st0" x1="10000" y1="8000" x2="0" y2="8000"/>
</g>
<g>
	<line class="st0" x1="10000" y1="8100" x2="0" y2="8100"/>
</g>
<g>
	<line class="st0" x1="10000" y1="8200" x2="0" y2="8200"/>
</g>
<g>
	<line class="st0" x1="10000" y1="8300" x2="0" y2="8300"/>
</g>
<g>
	<line class="st0" x1="10000" y1="8400" x2="0" y2="8400"/>
</g>
<g>
	<line class="st0" x1="10000" y1="8500" x2="0" y2="8500"/>
</g>
<g>
	<line class="st0" x1="10000" y1="8600" x2="0" y2="8600"/>
</g>
<g>
	<line class="st0" x1="10000" y1="8700" x2="0" y2="8700"/>
</g>
<g>
	<line class="st0" x1="10000" y1="8800" x2="0" y2="8800"/>
</g>
<g>
	<line class="st0" x1="10000" y1="8900" x2="0" y2="8900"/>
</g>
<g>
	<line class="st0" x1="10000" y1="9000" x2="0" y2="9000"/>
</g>
<g>
	<line class="st0" x1="10000" y1="9100" x2="0" y2="9100"/>
</g>
<g>
	<line class="st0" x1="10000" y1="9200" x2="0" y2="9200"/>
</g>
<g>
	<line class="st0" x1="10000" y1="9300" x2="0" y2="9300"/>
</g>
<g>
	<line class="st0" x1="10000" y1="9400" x2="0" y2="9400"/>
</g>
<g>
	<line class="st0" x1="10000" y1="9500" x2="0" y2="9500"/>
</g>
<g>
	<line class="st0" x1="10000" y1="9600" x2="0" y2="9600"/>
</g>
<g>
	<line class="st0" x1="10000" y1="9700" x2="0" y2="9700"/>
</g>
<g>
	<line class="st0" x1="10000" y1="9800" x2="0" y2="9800"/>
</g>
<g>
	<line class="st0" x1="10000" y1="9900" x2="0" y2="9900"/>
</g>
<g>
	<line class="st0" x1="10000" y1="10000" x2="0" y2="10000"/>
</g>
<g>
	<line class="st0" x1="0" y1="0" x2="0" y2="10000"/>
</g>
<g>
	<line class="st0" x1="100" y1="0" x2="100" y2="10000"/>
</g>
<g>
	<line class="st0" x1="200" y1="0" x2="200" y2="10000"/>
</g>
<g>
	<line class="st0" x1="300" y1="0" x2="300" y2="10000"/>
</g>
<g>
	<line class="st0" x1="400" y1="0" x2="400" y2="10000"/>
</g>
<g>
	<line class="st0" x1="500" y1="0" x2="500" y2="10000"/>
</g>
<g>
	<line class="st0" x1="600" y1="0" x2="600" y2="10000"/>
</g>
<g>
	<line class="st0" x1="700" y1="0" x2="700" y2="10000"/>
</g>
<g>
	<line class="st0" x1="800" y1="0" x2="800" y2="10000"/>
</g>
<g>
	<line class="st0" x1="900" y1="0" x2="900" y2="10000"/>
</g>
<g>
	<line class="st0" x1="1000" y1="0" x2="1000" y2="10000"/>
</g>
<g>
	<line class="st0" x1="1100" y1="0" x2="1100" y2="10000"/>
</g>
<g>
	<line class="st0" x1="1200" y1="0" x2="1200" y2="10000"/>
</g>
<g>
	<line class="st0" x1="1300" y1="0" x2="1300" y2="10000"/>
</g>
<g>
	<line class="st0" x1="1400" y1="0" x2="1400" y2="10000"/>
</g>
<g>
	<line class="st0" x1="1500" y1="0" x2="1500" y2="10000"/>
</g>
<g>
	<line class="st0" x1="1600" y1="0" x2="1600" y2="10000"/>
</g>
<g>
	<line class="st0" x1="1700" y1="0" x2="1700" y2="10000"/>
</g>
<g>
	<line class="st0" x1="1800" y1="0" x2="1800" y2="10000"/>
</g>
<g>
	<line class="st0" x1="1900" y1="0" x2="1900" y2="10000"/>
</g>
<g>
	<line class="st0" x1="2000" y1="0" x2="2000" y2="10000"/>
</g>
<g>
	<line class="st0" x1="2100" y1="0" x2="2100" y2="10000"/>
</g>
<g>
	<line class="st0" x1="2200" y1="0" x2="2200" y2="10000"/>
</g>
<g>
	<line class="st0" x1="2300" y1="0" x2="2300" y2="10000"/>
</g>
<g>
	<line class="st0" x1="2400" y1="0" x2="2400" y2="10000"/>
</g>
<g>
	<line class="st0" x1="2500" y1="0" x2="2500" y2="10000"/>
</g>
<g>
	<line class="st0" x1="2600" y1="0" x2="2600" y2="10000"/>
</g>
<g>
	<line class="st0" x1="2700" y1="0" x2="2700" y2="10000"/>
</g>
<g>
	<line class="st0" x1="2800" y1="0" x2="2800" y2="10000"/>
</g>
<g>
	<line class="st0" x1="2900" y1="0" x2="2900" y2="10000"/>
</g>
<g>
	<line class="st0" x1="3000" y1="0" x2="3000" y2="10000"/>
</g>
<g>
	<line class="st0" x1="3100" y1="0" x2="3100" y2="10000"/>
</g>
<g>
	<line class="st0" x1="3200" y1="0" x2="3200" y2="10000"/>
</g>
<g>
	<line class="st0" x1="3300" y1="0" x2="3300" y2="10000"/>
</g>
<g>
	<line class="st0" x1="3400" y1="0" x2="3400" y2="10000"/>
</g>
<g>
	<line class="st0" x1="3500" y1="0" x2="3500" y2="10000"/>
</g>
<g>
	<line class="st0" x1="3600" y1="0" x2="3600" y2="10000"/>
</g>
<g>
	<line class="st0" x1="3700" y1="0" x2="3700" y2="10000"/>
</g>
<g>
	<line class="st0" x1="3800" y1="0" x2="3800" y2="10000"/>
</g>
<g>
	<line class="st0" x1="3900" y1="0" x2="3900" y2="10000"/>
</g>
<g>
	<line class="st0" x1="4000" y1="0" x2="4000" y2="10000"/>
</g>
<g>
	<line class="st0" x1="4100" y1="0" x2="4100" y2="10000"/>
</g>
<g>
	<line class="st0" x1="4200" y1="0" x2="4200" y2="10000"/>
</g>
<g>
	<line class="st0" x1="4300" y1="0" x2="4300" y2="10000"/>
</g>
<g>
	<line class="st0" x1="4400" y1="0" x2="4400" y2="10000"/>
</g>
<g>
	<line class="st0" x1="4500" y1="0" x2="4500" y2="10000"/>
</g>
<g>
	<line class="st0" x1="4600" y1="0" x2="4600" y2="10000"/>
</g>
<g>
	<line class="st0" x1="4700" y1="0" x2="4700" y2="10000"/>
</g>
<g>
	<line class="st0" x1="4800" y1="0" x2="4800" y2="10000"/>
</g>
<g>
	<line class="st0" x1="4900" y1="0" x2="4900" y2="10000"/>
</g>
<g>
	<line class="st0" x1="5000" y1="0" x2="5000" y2="10000"/>
</g>
<g>
	<line class="st0" x1="5100" y1="0" x2="5100" y2="10000"/>
</g>
<g>
	<line class="st0" x1="5200" y1="0" x2="5200" y2="10000"/>
</g>
<g>
	<line class="st0" x1="5300" y1="0" x2="5300" y2="10000"/>
</g>
<g>
	<line class="st0" x1="5400" y1="0" x2="5400" y2="10000"/>
</g>
<g>
	<line class="st0" x1="5500" y1="0" x2="5500" y2="10000"/>
</g>
<g>
	<line class="st0" x1="5600" y1="0" x2="5600" y2="10000"/>
</g>
<g>
	<line class="st0" x1="5700" y1="0" x2="5700" y2="10000"/>
</g>
<g>
	<line class="st0" x1="5800" y1="0" x2="5800" y2="10000"/>
</g>
<g>
	<line class="st0" x1="5900" y1="0" x2="5900" y2="10000"/>
</g>
<g>
	<line class="st0" x1="6000" y1="0" x2="6000" y2="10000"/>
</g>
<g>
	<line class="st0" x1="6100" y1="0" x2="6100" y2="10000"/>
</g>
<g>
	<line class="st0" x1="6200" y1="0" x2="6200" y2="10000"/>
</g>
<g>
	<line class="st0" x1="6300" y1="0" x2="6300" y2="10000"/>
</g>
<g>
	<line class="st0" x1="6400" y1="0" x2="6400" y2="10000"/>
</g>
<g>
	<line class="st0" x1="6500" y1="0" x2="6500" y2="10000"/>
</g>
<g>
	<line class="st0" x1="6600" y1="0" x2="6600" y2="10000"/>
</g>
<g>
	<line class="st0" x1="6700" y1="0" x2="6700" y2="10000"/>
</g>
<g>
	<line class="st0" x1="6800" y1="0" x2="6800" y2="10000"/>
</g>
<g>
	<line class="st0" x1="6900" y1="0" x2="6900" y2="10000"/>
</g>
<g>
	<line class="st0" x1="7000" y1="0" x2="7000" y2="10000"/>
</g>
<g>
	<line class="st0" x1="7100" y1="0" x2="7100" y2="10000"/>
</g>
<g>
	<line class="st0" x1="7200" y1="0" x2="7200" y2="10000"/>
</g>
<g>
	<line class="st0" x1="7300" y1="0" x2="7300" y2="10000"/>
</g>
<g>
	<line class="st0" x1="7400" y1="0" x2="7400" y2="10000"/>
</g>
<g>
	<line class="st0" x1="7500" y1="0" x2="7500" y2="10000"/>
</g>
<g>
	<line class="st0" x1="7600" y1="0" x2="7600" y2="10000"/>
</g>
<g>
	<line class="st0" x1="7700" y1="0" x2="7700" y2="10000"/>
</g>
<g>
	<line class="st0" x1="7800" y1="0" x2="7800" y2="10000"/>
</g>
<g>
	<line class="st0" x1="7900" y1="0" x2="7900" y2="10000"/>
</g>
<g>
	<line class="st0" x1="8000" y1="0" x2="8000" y2="10000"/>
</g>
<g>
	<line class="st0" x1="8100" y1="0" x2="8100" y2="10000"/>
</g>
<g>
	<line class="st0" x1="8200" y1="0" x2="8200" y2="10000"/>
</g>
<g>
	<line class="st0" x1="8300" y1="0" x2="8300" y2="10000"/>
</g>
<g>
	<line class="st0" x1="8400" y1="0" x2="8400" y2="10000"/>
</g>
<g>
	<line class="st0" x1="8500" y1="0" x2="8500" y2="10000"/>
</g>
<g>
	<line class="st0" x1="8600" y1="0" x2="8600" y2="10000"/>
</g>
<g>
	<line class="st0" x1="8700" y1="0" x2="8700" y2="10000"/>
</g>
<g>
	<line class="st0" x1="8800" y1="0" x2="8800" y2="10000"/>
</g>
<g>
	<line class="st0" x1="8900" y1="0" x2="8900" y2="10000"/>
</g>
<g>
	<line class="st0" x1="9000" y1="0" x2="9000" y2="10000"/>
</g>
<g>
	<line class="st0" x1="9100" y1="0" x2="9100" y2="10000"/>
</g>
<g>
	<line class="st0" x1="9200" y1="0" x2="9200" y2="10000"/>
</g>
<g>
	<line class="st0" x1="9300" y1="0" x2="9300" y2="10000"/>
</g>
<g>
	<line class="st0" x1="9400" y1="0" x2="9400" y2="10000"/>
</g>
<g>
	<line class="st0" x1="9500" y1="0" x2="9500" y2="10000"/>
</g>
<g>
	<line class="st0" x1="9600" y1="0" x2="9600" y2="10000"/>
</g>
<g>
	<line class="st0" x1="9700" y1="0" x2="9700" y2="10000"/>
</g>
<g>
	<line class="st0" x1="9800" y1="0" x2="9800" y2="10000"/>
</g>
<g>
	<line class="st0" x1="9900" y1="0" x2="9900" y2="10000"/>
</g>
<g>
	<line class="st0" x1="10000" y1="0" x2="10000" y2="10000"/>
</g>
</svg>
